<svg xmlns="http://www.w3.org/2000/svg" width="60" height="60" viewBox="0 0 60 60">
  <g id="Group_448" data-name="Group 448" transform="translate(2351.661 501.433)">
    <path id="Path_4419" data-name="Path 4419" d="M-2247.591-501.433c1.048.234,2.111.412,3.141.711a16.929,16.929,0,0,1,9.451,6.931,17.461,17.461,0,0,1,3.021,8.42,18.241,18.241,0,0,1-2.727,11.424c-2.643,4.324-5.288,8.65-7.8,13.055-1.573,2.762-2.907,5.669-4.336,8.517a2.63,2.63,0,0,1-2.032,1.653,2.329,2.329,0,0,1-2.289-.95,5.13,5.13,0,0,1-.5-.867c-2.627-5.352-5.214-10.727-8.34-15.8-.979-1.588-2.015-3.142-3.081-4.67a18.193,18.193,0,0,1-3.249-7.963,17.58,17.58,0,0,1,2.42-12.058,17.225,17.225,0,0,1,11.434-8.089c.618-.13,1.246-.211,1.869-.315Zm-1.627,10.181a7.532,7.532,0,0,0-7.412,7.59,7.523,7.523,0,0,0,7.424,7.576,7.52,7.52,0,0,0,7.409-7.588A7.526,7.526,0,0,0-2249.218-491.252Z" transform="translate(-72.45 0)" fill="#91b40d"/>
    <path id="Path_4420" data-name="Path 4420" d="M-2351.661-241.86a21.975,21.975,0,0,1,1.12-2.7,10.24,10.24,0,0,1,3.567-3.457,30.1,30.1,0,0,1,9.875-3.836,2.436,2.436,0,0,1,2.868,1.831,2.517,2.517,0,0,1-1.678,3.052c-1.537.5-3.109.9-4.624,1.453a13.481,13.481,0,0,0-5.31,3.136,1.883,1.883,0,0,0-.079,3,10.374,10.374,0,0,0,3.533,2.381,38.527,38.527,0,0,0,9.966,2.875,64.375,64.375,0,0,0,13.123.814,51.589,51.589,0,0,0,16.949-3.081,14.686,14.686,0,0,0,4.432-2.481,5.879,5.879,0,0,0,.58-.584,1.849,1.849,0,0,0-.052-2.828,9.161,9.161,0,0,0-3.458-2.385c-2.083-.815-4.218-1.494-6.341-2.2a2.572,2.572,0,0,1-1.967-2.368,2.379,2.379,0,0,1,1.491-2.449,3.059,3.059,0,0,1,1.646-.131,30.978,30.978,0,0,1,9.451,3.662,11.221,11.221,0,0,1,3.974,3.869,6.932,6.932,0,0,1-1.188,8.444,16.98,16.98,0,0,1-5.583,3.729,45.205,45.205,0,0,1-12.1,3.233,71.13,71.13,0,0,1-12.67.669,57.48,57.48,0,0,1-17.788-3.074,19.237,19.237,0,0,1-7.51-4.451,7.383,7.383,0,0,1-2.132-4.007.9.9,0,0,0-.1-.214Z" transform="translate(0 -213.269)" fill="#91b40d"/>
    <path id="Path_4421" data-name="Path 4421" d="M-2159.177-396.762a2.564,2.564,0,0,1-2.484,2.638,2.56,2.56,0,0,1-2.579-2.481,2.527,2.527,0,0,1,2.362-2.613A2.523,2.523,0,0,1-2159.177-396.762Z" transform="translate(-159.952 -87.236)" fill="#91b40d"/>
  </g>
</svg>
