
<svg xmlns="http://www.w3.org/2000/svg" width="420" height="185" viewBox="0 0 420 185">
  <g id="Group_415" data-name="Group 415" transform="translate(-901.796 -414.904)" opacity="0.15">
    <path id="Path_4310" data-name="Path 4310" d="M923.853,452.093a18.155,18.155,0,0,1-8.963-2.383,1.727,1.727,0,1,1,1.746-2.979c3.812,2.23,9.694,2.932,13.565-.047,1.986-1.528,3.187-3.729,4.46-6.057.429-.786.873-1.6,1.357-2.4a24.086,24.086,0,0,1,6.781-7.635c-6.446-2.4-14.121-4.278-21.7-2.572-5.471,1.233-11.709,4.984-10.353,15.842a1.727,1.727,0,0,1-3.427.429c-1.292-10.327,3.452-17.486,13.019-19.64,10.149-2.285,20.163,1.117,27.751,4.34a1.728,1.728,0,0,1-.677,3.318h-.036a3.488,3.488,0,0,0-1.622.506c-2.481,1.393-4.7,3.75-6.784,7.2-.44.731-.866,1.513-1.277,2.266-1.39,2.543-2.826,5.169-5.387,7.141a13.727,13.727,0,0,1-8.454,2.67" transform="translate(14.019 23.405)" fill="#91b40d"/>
    <path id="Path_4311" data-name="Path 4311" d="M944.556,503.524a39.936,39.936,0,0,1-13.768-77.42,1.729,1.729,0,0,1,1.193,3.245A36.477,36.477,0,1,0,981.03,463.6a36.152,36.152,0,0,0-3.259-15.093,1.727,1.727,0,0,1,3.143-1.433,39.942,39.942,0,0,1-36.358,56.452" transform="translate(7.473 28.644)" fill="#91b40d"/>
    <path id="Path_4312" data-name="Path 4312" d="M930.326,463.173a1.732,1.732,0,0,1-1.706-1.466c-2.452-15.947-19.872-23.627-20.051-23.7a1.728,1.728,0,0,1,.393-3.288c.473-.08,11.677-1.91,19.621,2.856a1.727,1.727,0,1,1-1.779,2.961c-3.547-2.128-8.014-2.706-11.513-2.765,5.937,3.816,14.9,11.429,16.744,23.415a1.726,1.726,0,0,1-1.444,1.968,1.661,1.661,0,0,1-.266.022" transform="translate(15.116 50.422)" fill="#91b40d"/>
    <path id="Path_4313" data-name="Path 4313" d="M927,497.181a1.734,1.734,0,0,1-.84-.218L914.3,490.375a1.723,1.723,0,0,1-.851-1.164c-.211-1.037-4.583-25.834,48.086-64.961a1.727,1.727,0,0,1,2.193,2.663c-33.448,30.538-34.994,68.217-35,68.591A1.727,1.727,0,0,1,927,497.181M916.775,487.8l8.727,4.849a110.278,110.278,0,0,1,20.789-51.5c-28.679,25.98-29.683,42.993-29.516,46.652" transform="translate(30.3 23.268)" fill="#91b40d"/>
    <path id="Path_4314" data-name="Path 4314" d="M1072.907,461.158H998.87a4.231,4.231,0,0,1-4.227-4.227V441.216h3.347v15.715a.881.881,0,0,0,.88.88h74.037a.883.883,0,0,0,.88-.88V441.216h3.347v15.715a4.23,4.23,0,0,1-4.227,4.227" transform="translate(241.445 68.437)" fill="#91b40d"/>
    <path id="Path_4315" data-name="Path 4315" d="M997.99,455.415h-3.347V438.424a4.231,4.231,0,0,1,4.227-4.227h74.037a4.231,4.231,0,0,1,4.227,4.227v16.991h-3.347V438.424a.881.881,0,0,0-.88-.88H998.87a.881.881,0,0,0-.88.88Z" transform="translate(241.445 50.176)" fill="#91b40d"/>
    <rect id="Rectangle_14" data-name="Rectangle 14" width="74.833" height="3.347" transform="translate(1239.919 505.945)" fill="#91b40d"/>
    <path id="Path_4316" data-name="Path 4316" d="M1003.017,439.313a2.554,2.554,0,1,1-2.554-2.55,2.555,2.555,0,0,1,2.554,2.55" transform="translate(250.063 56.921)" fill="#91b40d"/>
    <path id="Path_4317" data-name="Path 4317" d="M1003.017,445.282a2.554,2.554,0,1,1-2.554-2.554,2.552,2.552,0,0,1,2.554,2.554" transform="translate(250.063 72.453)" fill="#91b40d"/>
    <path id="Path_4318" data-name="Path 4318" d="M1017.756,439.313a2.554,2.554,0,1,1-2.553-2.55,2.555,2.555,0,0,1,2.553,2.55" transform="translate(288.938 56.921)" fill="#91b40d"/>
    <path id="Path_4319" data-name="Path 4319" d="M1017.756,445.282a2.554,2.554,0,1,1-2.553-2.554,2.552,2.552,0,0,1,2.553,2.554" transform="translate(288.938 72.453)" fill="#91b40d"/>
    <path id="Path_4320" data-name="Path 4320" d="M998.32,447.793a1.674,1.674,0,0,1-1.673-1.673V443.7c0-7.4,5.944-13.252,15.144-14.911l1.964-.309a1.673,1.673,0,1,1,.517,3.307l-1.924.3c-7.606,1.371-12.354,5.824-12.354,11.611v2.415a1.673,1.673,0,0,1-1.673,1.673" transform="translate(246.731 35.276)" fill="#91b40d"/>
    <path id="Path_4321" data-name="Path 4321" d="M1014.847,446.436h0a1.673,1.673,0,0,1-1.673-1.673v-2.415c0-4.4-2.677-8.01-7.541-10.16a1.674,1.674,0,0,1,1.353-3.063c6.06,2.681,9.534,7.5,9.534,13.223v2.415a1.674,1.674,0,0,1-1.673,1.673" transform="translate(267.799 36.621)" fill="#91b40d"/>
    <path id="Path_4322" data-name="Path 4322" d="M1007.159,435.307a9.519,9.519,0,0,1-6.137-2.274,1.674,1.674,0,1,1,2.154-2.565,6.112,6.112,0,0,0,7.966,0,1.674,1.674,0,1,1,2.154,2.565,9.519,9.519,0,0,1-6.137,2.274" transform="translate(256.692 39.508)" fill="#91b40d"/>
    <path id="Path_4323" data-name="Path 4323" d="M1008.185,440.087a1.673,1.673,0,0,1-1.673-1.673,7.456,7.456,0,0,0-5.34-7.319,1.674,1.674,0,1,1,1.059-3.176,10.809,10.809,0,0,1,7.628,10.495,1.674,1.674,0,0,1-1.674,1.673" transform="translate(255.644 33.647)" fill="#91b40d"/>
    <path id="Path_4324" data-name="Path 4324" d="M1003.5,442.276h-.022a1.674,1.674,0,0,1-1.673-1.673v-4.729a9.106,9.106,0,0,1,3.023-6.781c2.121-1.761,5.078-2.314,8.8-1.648a10.9,10.9,0,0,0,6.282-.7,1.674,1.674,0,0,1,2.259,1.568c0,8.959-7.494,10.091-12.452,10.84-2.019.309-4.54.688-4.54,1.451a1.671,1.671,0,0,1-1.673,1.673m7.253-11.757a5.072,5.072,0,0,0-5.6,5.369v.8a24.931,24.931,0,0,1,4.056-.84c4.889-.742,8.355-1.564,9.331-5.184a13.9,13.9,0,0,1-5.511.08,12.813,12.813,0,0,0-2.277-.222" transform="translate(260.344 30.535)" fill="#91b40d"/>
    <path id="Path_4325" data-name="Path 4325" d="M1019.7,447.328a1.6,1.6,0,0,1-.291-.025,1.678,1.678,0,0,1-1.36-1.939l.418-2.379c.76-4.332-1.255-8.352-5.675-11.309a1.672,1.672,0,1,1,1.859-2.779c5.507,3.685,8.1,9.032,7.112,14.667l-.415,2.379a1.675,1.675,0,0,1-1.648,1.386" transform="translate(287.352 35.658)" fill="#91b40d"/>
    <path id="Path_4326" data-name="Path 4326" d="M1015.358,435.154a9.442,9.442,0,0,1-7.253-3.437,1.674,1.674,0,1,1,2.561-2.157,6.112,6.112,0,0,0,7.85,1.375,1.675,1.675,0,0,1,1.677,2.9,9.645,9.645,0,0,1-4.835,1.32" transform="translate(275.913 36.611)" fill="#91b40d"/>
    <path id="Path_4327" data-name="Path 4327" d="M1014.232,439.926a1.6,1.6,0,0,1-.291-.026,1.677,1.677,0,0,1-1.36-1.939,7.456,7.456,0,0,0-3.994-8.13,1.674,1.674,0,1,1,1.59-2.946,10.814,10.814,0,0,1,5.7,11.655,1.675,1.675,0,0,1-1.648,1.386" transform="translate(275.901 30.659)" fill="#91b40d"/>
    <path id="Path_4328" data-name="Path 4328" d="M1010.781,440.1a1.926,1.926,0,0,1-.288-.025l-.029-.007a1.671,1.671,0,0,1-1.353-1.935l.815-4.656a9.1,9.1,0,0,1,4.143-6.159c2.4-1.368,5.409-1.4,8.952-.105a10.913,10.913,0,0,0,6.308.393,1.675,1.675,0,0,1,1.957,1.935c-1.546,8.821-9.123,8.647-14.139,8.527-2.044-.044-4.583-.105-4.718.647a1.675,1.675,0,0,1-1.648,1.386m7.464-10.487a4.986,4.986,0,0,0-2.514.611,5.817,5.817,0,0,0-2.51,3.841l-.138.786a24.332,24.332,0,0,1,4.14-.127c4.944.113,8.5-.1,10.083-3.5a13.931,13.931,0,0,1-5.438-.873,10.693,10.693,0,0,0-3.623-.742" transform="translate(279.538 29.564)" fill="#91b40d"/>
    <path id="Path_4329" data-name="Path 4329" d="M1000.512,526.927l-.105,0-9.585-.571-10.7.571-.091,0a18.368,18.368,0,0,1-13.43-6.035l-2.455-2.674a58.338,58.338,0,0,1-15.118-39.683v-5.075c0-14.649,11.92-26.267,30.367-29.6l4.089-.637a1.765,1.765,0,1,1,.542,3.489l-4.042.633c-16.9,3.048-27.424,13.056-27.424,26.111v5.075a54.813,54.813,0,0,0,14.187,37.293L969.2,518.5a14.625,14.625,0,0,0,10.782,4.893l10.749-.571a1.825,1.825,0,0,1,.2,0l9.632.571a14.636,14.636,0,0,0,10.778-4.893l2.455-2.674a54.812,54.812,0,0,0,14.187-37.293v-5.075c0-9.833-6.151-18.192-16.882-22.939a1.766,1.766,0,1,1,1.429-3.23c12.066,5.337,18.985,14.874,18.985,26.169v5.075a58.326,58.326,0,0,1-15.122,39.683l-2.452,2.674a18.374,18.374,0,0,1-13.43,6.035" transform="translate(122.834 72.977)" fill="#91b40d"/>
    <path id="Path_4330" data-name="Path 4330" d="M969.352,454.069a18.249,18.249,0,0,1-11.764-4.362,1.765,1.765,0,1,1,2.27-2.7,14.57,14.57,0,0,0,18.988,0,1.765,1.765,0,1,1,2.27,2.7,18.249,18.249,0,0,1-11.764,4.362" transform="translate(143.756 82.496)" fill="#91b40d"/>
    <path id="Path_4331" data-name="Path 4331" d="M971.509,464.117a1.764,1.764,0,0,1-1.764-1.764c0-8.076-4.642-14.445-12.415-17.035a1.766,1.766,0,0,1,1.117-3.35,21,21,0,0,1,14.827,20.385,1.764,1.764,0,0,1-1.764,1.764" transform="translate(141.611 70.14)" fill="#91b40d"/>
    <path id="Path_4332" data-name="Path 4332" d="M961.677,468.717h-.047a1.763,1.763,0,0,1-1.764-1.764v-9.934c.018-1.939.476-8.556,5.711-12.9,4.041-3.35,9.781-4.387,17.05-3.085a24.5,24.5,0,0,0,14.117-1.557,1.767,1.767,0,0,1,2.383,1.655c0,17.308-14.26,19.465-24.671,21.04-6.828,1.033-11.014,1.819-11.014,4.776a1.764,1.764,0,0,1-1.764,1.764m15.231-24.692c-3.776,0-6.817.942-9.079,2.816-3.227,2.677-4.405,7.021-4.431,10.193v4.292c2.659-1.448,6.533-2.033,10.531-2.641,9.523-1.44,20.236-3.059,21.535-15.02a26.9,26.9,0,0,1-13.459.851,28.994,28.994,0,0,0-5.1-.491" transform="translate(151.268 63.584)" fill="#91b40d"/>
    <path id="Path_4333" data-name="Path 4333" d="M990.631,450.939a4.248,4.248,0,1,1-5.551-2.3,4.248,4.248,0,0,1,5.551,2.3" transform="translate(210.314 86.979)" fill="#91b40d"/>
    <path id="Path_4334" data-name="Path 4334" d="M907.672,423.079a4.248,4.248,0,1,1,2.3-5.551,4.248,4.248,0,0,1-2.3,5.551" transform="translate(0 0)" fill="#91b40d"/>
    <path id="Path_4335" data-name="Path 4335" d="M943.382,454.191a4.249,4.249,0,1,1-2.3-5.551,4.248,4.248,0,0,1,2.3,5.551" transform="translate(87.115 86.979)" fill="#91b40d"/>
    <path id="Path_4336" data-name="Path 4336" d="M1018.492,423.079a4.248,4.248,0,1,1,5.551-2.3,4.248,4.248,0,0,1-5.551,2.3" transform="translate(297.428 0)" fill="#91b40d"/>
  </g>
</svg>
