<svg xmlns="http://www.w3.org/2000/svg" width="60" height="50" viewBox="0 0 60 50">
  <g id="Group_447" data-name="Group 447" transform="translate(1759.237 335.869)">
    <path id="Path_4415" data-name="Path 4415" d="M-1759.237-316.193c.115-1.148.193-2.3.355-3.446a15.951,15.951,0,0,1,8.365-12.4,28.371,28.371,0,0,1,9.3-2.991,80.518,80.518,0,0,1,15.858-.753,56.349,56.349,0,0,1,9.972,1.117,26.131,26.131,0,0,1,7.765,2.852,15.77,15.77,0,0,1,7.8,11.228c.293,1.581.385,3.2.578,4.88h-12.352c-.279-1.416-.486-2.817-.836-4.182a7.77,7.77,0,0,0-6.519-6.131,24.3,24.3,0,0,0-4.115-.461q-6.784-.092-13.569-.018a12.734,12.734,0,0,0-4.836,1.01c-2.739,1.157-4.19,3.4-4.89,6.231-.287,1.156-.435,2.347-.655,3.57-.14.012-.308.037-.476.037q-5.586,0-11.174,0a5.389,5.389,0,0,1-.578-.058Z" transform="translate(0 0)" fill="#91b40d"/>
    <path id="Path_4416" data-name="Path 4416" d="M-1759.237-321.44l11.5.024c.31,0,.621,0,.926,0,.2,2.655-.963,4.025-2.956,4.146a56.79,56.79,0,0,1-6.62-.012,2.866,2.866,0,0,1-2.731-2.634,2.225,2.225,0,0,0-.118-.323Z" transform="translate(0 6.861)" fill="#91b40d"/>
    <path id="Path_4417" data-name="Path 4417" d="M-1737.639-321.662h12.764c0-.8,0-1.593,0-2.383s.14-1.064.9-1.1a37.872,37.872,0,0,1,4.019,0c.756.04.911.326.917,1.1a9.7,9.7,0,0,0,.085,2.974c.3.864,1.176,1.507,1.767,2.274,3.527,4.573,6.988,9.2,10.088,14.095a4.991,4.991,0,0,1,.852,2.9c-.067,3-.022,6-.023,9,0,1.641-.62,2.271-2.227,2.271q-22.783,0-45.567.018a2.025,2.025,0,0,1-2.217-2.256c.064-3.239.006-6.481.035-9.722a2.631,2.631,0,0,1,.349-1.347c1.821-2.784,3.614-5.594,5.56-8.284,2.134-2.949,4.425-5.776,6.634-8.668a1.193,1.193,0,0,0,.2-.651c.022-.861,0-1.721.01-2.581.006-.8.163-1.091.9-1.126,1.374-.064,2.755-.027,4.131.009.589.015.84.413.832,1.009C-1737.646-323.327-1737.639-322.529-1737.639-321.662Zm13.3,8.092a1.756,1.756,0,0,0,1.681-1.727,1.768,1.768,0,0,0-1.67-1.742,1.756,1.756,0,0,0-1.707,1.76A1.75,1.75,0,0,0-1724.335-313.57Zm-.006,2.519a1.728,1.728,0,0,0-1.69,1.7,1.747,1.747,0,0,0,1.714,1.75,1.756,1.756,0,0,0,1.662-1.745A1.732,1.732,0,0,0-1724.341-311.051Zm-6.956-2.519a1.72,1.72,0,0,0,1.652-1.738,1.726,1.726,0,0,0-1.661-1.732,1.736,1.736,0,0,0-1.685,1.771A1.728,1.728,0,0,0-1731.3-313.57Zm1.65,4.248a1.7,1.7,0,0,0-1.647-1.729,1.714,1.714,0,0,0-1.7,1.745,1.729,1.729,0,0,0,1.688,1.708A1.708,1.708,0,0,0-1729.647-309.322Zm5.282,7.682a1.711,1.711,0,0,0,1.71-1.675,1.71,1.71,0,0,0-1.641-1.742,1.706,1.706,0,0,0-1.736,1.7A1.711,1.711,0,0,0-1724.365-301.64Zm-12.27-7.7a1.679,1.679,0,0,0-1.655-1.711,1.679,1.679,0,0,0-1.658,1.765,1.684,1.684,0,0,0,1.682,1.688A1.688,1.688,0,0,0-1736.635-309.34Zm-1.678,4.283a1.643,1.643,0,0,0-1.634,1.714,1.636,1.636,0,0,0,1.648,1.7,1.642,1.642,0,0,0,1.665-1.744A1.646,1.646,0,0,0-1738.313-305.057Zm1.678-10.275a1.7,1.7,0,0,0-1.67-1.708,1.7,1.7,0,0,0-1.645,1.735,1.7,1.7,0,0,0,1.7,1.735A1.7,1.7,0,0,0-1736.635-315.332Zm5.3,13.692a1.671,1.671,0,0,0,1.691-1.672,1.681,1.681,0,0,0-1.618-1.745,1.673,1.673,0,0,0-1.728,1.7A1.683,1.683,0,0,0-1731.338-301.64Z" transform="translate(1.414 4.639)" fill="#91b40d"/>
    <path id="Path_4418" data-name="Path 4418" d="M-1726.632-321.4h12.413a3.075,3.075,0,0,1-2.706,3.856,53.2,53.2,0,0,1-6.91,0C-1725.591-317.649-1726.793-318.843-1726.632-321.4Z" transform="translate(14.804 6.882)" fill="#91b40d"/>
  </g>
</svg>
