<svg xmlns="http://www.w3.org/2000/svg" width="60" height="60" viewBox="0 0 60 60">
  <g id="Group_449" data-name="Group 449" transform="translate(1744.868 -140.472)" opacity="0.6">
    <path id="Path_4422" data-name="Path 4422" d="M-1743.556,473a2.1,2.1,0,0,1-1.309-2.241c.059-1.74.015-3.484.016-5.226a1.762,1.762,0,0,1,1.911-1.94,7.812,7.812,0,0,1,3.863,1.025,11.451,11.451,0,0,0,8.7.852,17.4,17.4,0,0,0,2.587-1.087,7.714,7.714,0,0,1,7.009,0,12.9,12.9,0,0,0,6.414,1.551,12.018,12.018,0,0,0,5.1-1.407,7.951,7.951,0,0,1,7.751.059,11.531,11.531,0,0,0,8.756.883,16.522,16.522,0,0,0,2.637-1.115,7.43,7.43,0,0,1,3.515-.759,1.716,1.716,0,0,1,1.731,1.7c.015,2,.01,3.993,0,5.989a1.887,1.887,0,0,1-1.29,1.712Z" transform="translate(0 -272.53)" fill="#91b40d"/>
    <path id="Path_4423" data-name="Path 4423" d="M-1542.139,172.487c.833-2.28,1.65-4.516,2.467-6.751q2.253-6.162,4.516-12.32a.945.945,0,0,0-.117-.966c-.79-1.168-1.541-2.362-2.329-3.531a2.014,2.014,0,0,1-.238-1.947c.636-1.722,1.256-3.45,1.893-5.171a1.8,1.8,0,0,1,2.538-1.166q4.227,1.523,8.449,3.058a1.813,1.813,0,0,1,1.2,2.611c-.6,1.652-1.234,3.293-1.8,4.957a2.221,2.221,0,0,1-1.622,1.534q-2.005.569-3.991,1.2a.973.973,0,0,0-.568.48q-3.5,9.512-6.969,19.038c-.019.052-.03.106-.054.19q2.8,1.016,5.577,2.028c1.584.578,1.951,1.361,1.365,2.942-.829,2.234-1.624,4.481-2.521,6.688a13.623,13.623,0,0,1-2.666,3.987.622.622,0,0,1-.852.154,23.237,23.237,0,0,0-3.415-1.4,11.35,11.35,0,0,0-8.13.822c-.577.289-1.182.521-1.764.8-.407.2-.624.086-.82-.318a15.209,15.209,0,0,1-.667-12.181c.676-1.894,1.379-3.779,2.075-5.666a1.817,1.817,0,0,1,2.566-1.208C-1546.082,171.05-1544.152,171.756-1542.139,172.487Zm.014.035c-.761,2.1-1.5,4.109-2.214,6.13a1.684,1.684,0,0,0-.071.8,1.71,1.71,0,0,0,1.482,1.454,1.725,1.725,0,0,0,1.9-1.159c.6-1.606,1.184-3.221,1.771-4.833.138-.379.268-.762.421-1.2Zm9.885-21.93c1.094-.329,2.143-.64,3.187-.965a.607.607,0,0,0,.368-.252c.361-.938.694-1.887,1.048-2.865l-5.5-1.991c-.36.976-.706,1.882-1.019,2.8a.652.652,0,0,0,.1.484C-1533.474,148.723-1532.868,149.634-1532.24,150.592Z" transform="translate(-161.298)" fill="#91b40d"/>
    <path id="Path_4424" data-name="Path 4424" d="M-1712.4,250.867a9.193,9.193,0,0,1,5.063-2.93,21.057,21.057,0,0,1,3.258-.409,1.612,1.612,0,0,1,1.685,1.551,10.941,10.941,0,0,1-2.747,7.828,10.1,10.1,0,0,1-6.135,2.813c-.175.026-.351.039-.526.061s-.35.049-.6.085v2.44c0,.862.007,1.723-.007,2.585,0,.156-.048.407-.148.452-1.033.464-2.081.9-3.126,1.332a1.1,1.1,0,0,1-.266.028v-6.759c-1.185-.257-2.335-.424-3.432-.76a8.7,8.7,0,0,1-6.208-6.942,17.809,17.809,0,0,1-.358-2.961,1.666,1.666,0,0,1,1.779-1.764,11.074,11.074,0,0,1,8.23,3.32c0-.919-.054-1.732.013-2.534a3.971,3.971,0,0,0-.9-2.949,9.112,9.112,0,0,1-2.057-5.981,9.686,9.686,0,0,1,1.831-5.181,17.224,17.224,0,0,1,1.573-1.973,1.72,1.72,0,0,1,2.609-.022,11.825,11.825,0,0,1,3.326,6.219,8.934,8.934,0,0,1-1.41,6.152,5.659,5.659,0,0,1-.763,1.112,2.566,2.566,0,0,0-.695,2.13C-1712.351,248.775-1712.4,249.747-1712.4,250.867Z" transform="translate(-15.943 -76.93)" fill="#91b40d"/>
    <path id="Path_4425" data-name="Path 4425" d="M-1492.97,344.639l3.286,1.2c-.153.437-.282.819-.421,1.2-.588,1.612-1.167,3.227-1.771,4.833a1.725,1.725,0,0,1-1.9,1.159,1.71,1.71,0,0,1-1.483-1.454,1.687,1.687,0,0,1,.071-.8C-1494.468,348.748-1493.73,346.736-1492.97,344.639Z" transform="translate(-210.403 -172.225)" fill="#91b40d"/>
  </g>
</svg>
